# Blender 3.3.0
# www.blender.org
mtllib cube.mtl
o Cube
v -0.314779 1.108322 2.293266
v 0.189377 1.623784 0.427757
v 1.115030 -0.290123 2.293266
v 1.619185 0.225339 0.427757
v -1.619185 -0.225339 1.572243
v -1.115030 0.290123 -0.293266
v -0.189377 -1.623784 1.572243
v 0.314779 -1.108322 -0.293266
vn -0.2521 -0.2577 0.9328
vn 0.7149 -0.6992 -0.0000
vn -0.6522 -0.6668 -0.3605
vn 0.2521 0.2577 -0.9328
vn 0.6522 0.6668 0.3605
vn -0.7149 0.6992 -0.0000
vt 0.625000 0.500000
vt 0.375000 0.500000
vt 0.625000 0.750000
vt 0.375000 0.750000
vt 0.875000 0.500000
vt 0.625000 0.250000
vt 0.375000 0.250000
vt 0.125000 0.500000
vt 0.875000 0.750000
vt 0.625000 1.000000
vt 0.625000 0.000000
vt 0.375000 1.000000
vt 0.375000 0.000000
vt 0.125000 0.750000
s 0
usemtl Material
f 5/5/1 3/3/1 1/1/1
f 4/4/2 7/10/2 8/12/2
f 7/11/3 6/7/3 8/13/3
f 6/8/4 4/4/4 8/14/4
f 1/1/5 4/4/5 2/2/5
f 5/6/6 2/2/6 6/7/6
f 5/5/1 7/9/1 3/3/1
f 4/4/2 3/3/2 7/10/2
f 7/11/3 5/6/3 6/7/3
f 6/8/4 2/2/4 4/4/4
f 1/1/5 3/3/5 4/4/5
f 5/6/6 1/1/6 2/2/6
