# Blender 3.3.0
# www.blender.org
o obj
v -1.000000 -0.326111 1.000000
v -0.495041 2.793947 0.495041
v -1.000000 -0.326111 -1.000000
v -0.495041 2.793947 -0.495041
v 1.000000 -0.326111 1.000000
v 0.495041 2.793947 0.495041
v 1.000000 -0.326111 -1.000000
v 0.495041 2.793947 -0.495041
v 7.985426 0.000000 -7.985426
v -7.985426 0.000000 -7.985426
v 7.985426 0.000000 7.985426
v -7.985426 0.000000 7.985426
v -2.106540 3.034801 2.106540
v -2.106540 3.034801 -2.106540
v 2.106540 3.034801 2.106540
v 2.106540 3.034801 -2.106540
v -2.106540 3.473311 2.106540
v -2.106540 3.473311 -2.106540
v 2.106540 3.473311 2.106540
v 2.106540 3.473311 -2.106540
v -0.648190 5.085652 0.648190
v -0.648190 5.085652 -0.648190
v 0.648190 5.085652 0.648190
v 0.648190 5.085652 -0.648190
vn -0.9872 0.1598 -0.0000
vn -0.0000 0.1598 -0.9872
vn 0.9872 0.1598 -0.0000
vn -0.0000 0.1598 0.9872
vn -0.0000 -1.0000 -0.0000
vn -0.1478 -0.9890 -0.0000
vn -0.0000 1.0000 -0.0000
vn -0.0000 -0.0000 -1.0000
vn -0.0000 -0.9890 0.1478
vn -0.0000 -0.9890 -0.1478
vn 0.1478 -0.9890 -0.0000
vn 0.7416 0.6708 -0.0000
vn 1.0000 -0.0000 -0.0000
vn -1.0000 -0.0000 -0.0000
vn -0.0000 -0.0000 1.0000
vn -0.7416 0.6708 -0.0000
vn -0.0000 0.6708 0.7416
vn -0.0000 0.6708 -0.7416
vt 0.375000 0.000000
vt 0.375000 1.000000
vt 0.125000 0.750000
vt 0.625000 1.000000
vt 0.625000 0.000000
vt 0.125000 0.500000
vt 0.375000 0.250000
vt 0.625000 0.250000
vt 0.375000 0.750000
vt 0.625000 0.750000
vt 0.375000 0.500000
vt 0.625000 0.500000
vt 0.000000 0.000000
vt 1.000000 0.000000
vt 0.000000 1.000000
vt 1.000000 1.000000
vt 0.625000 1.000000
vt 0.625000 0.000000
vt 0.625000 0.250000
vt 0.625000 0.750000
vt 0.625000 0.500000
vt 0.625000 1.000000
vt 0.625000 0.000000
vt 0.625000 0.250000
vt 0.625000 0.750000
vt 0.625000 0.500000
vt 0.875000 0.750000
vt 0.625000 0.000000
vt 0.625000 1.000000
vt 0.875000 0.500000
vt 0.625000 0.250000
vt 0.625000 0.750000
vt 0.625000 0.500000
s 0
f 2/5/1 3/7/1 1/1/1
f 4/8/2 7/11/2 3/7/2
f 8/12/3 5/9/3 7/11/3
f 6/10/4 1/2/4 5/9/4
f 7/11/5 1/3/5 3/6/5
f 2/5/6 14/19/6 4/8/6
f 10/14/7 11/15/7 9/13/7
f 14/19/8 20/26/8 16/21/8
f 6/10/9 13/17/9 2/4/9
f 4/8/10 16/21/10 8/12/10
f 8/12/11 15/20/11 6/10/11
f 20/26/12 23/32/12 19/25/12
f 16/21/13 19/25/13 15/20/13
f 13/18/14 18/24/14 14/19/14
f 15/20/15 17/22/15 13/17/15
f 22/30/7 23/32/7 24/33/7
f 17/23/16 22/31/16 18/24/16
f 19/25/17 21/29/17 17/22/17
f 18/24/18 24/33/18 20/26/18
f 2/5/1 4/8/1 3/7/1
f 4/8/2 8/12/2 7/11/2
f 8/12/3 6/10/3 5/9/3
f 6/10/4 2/4/4 1/2/4
f 7/11/5 5/9/5 1/3/5
f 2/5/6 13/18/6 14/19/6
f 10/14/7 12/16/7 11/15/7
f 14/19/8 18/24/8 20/26/8
f 6/10/9 15/20/9 13/17/9
f 4/8/10 14/19/10 16/21/10
f 8/12/11 16/21/11 15/20/11
f 20/26/12 24/33/12 23/32/12
f 16/21/13 20/26/13 19/25/13
f 13/18/14 17/23/14 18/24/14
f 15/20/15 19/25/15 17/22/15
f 22/30/7 21/27/7 23/32/7
f 17/23/16 21/28/16 22/31/16
f 19/25/17 23/32/17 21/29/17
f 18/24/18 22/31/18 24/33/18
